<svg width="80" height="80" viewBox="0 0 80 80" fill="none" xmlns="http://www.w3.org/2000/svg">
<path d="M76.4071 32.1914C75.0012 38.0488 71.6844 44.7835 66.7362 51.4642C64.2838 54.746 61.598 57.8562 58.6985 60.7717C52.1221 67.3425 45.0946 72.2701 38.6294 75.2267C49.7044 75.2267 59.7103 70.463 66.7362 63.0166C74.2756 55.0225 78.3163 43.8538 76.4071 32.1914Z" fill="white"/>
<path d="M66.7362 39.8549C73.2654 30.4932 77.9796 21.0282 79.4427 13.4096C79.7479 11.819 79.9342 10.2088 80 8.59188V8.04418C79.9444 4.37592 78.7086 1.7473 75.4542 0.433804C73.2065 -0.277875 70.2348 -0.113893 66.7396 0.925749C63.9296 1.80305 60.7829 3.28052 57.3533 5.36144C41.4445 -3.61981 21.0909 0.0500873 9.56633 13.1916C-0.158419 23.4879 -2.8573 40.2386 3.26949 52.8865L3.32673 52.8324C0.80126 46.8635 0.632895 39.7451 2.08925 33.3399C2.34508 32.0373 2.70076 30.7552 3.15331 29.5044C3.26444 29.1765 3.37724 28.901 3.49004 28.573C3.73675 27.9304 4.03922 27.3094 4.39416 26.7167C8.38609 18.5029 15.4692 13.7409 20.8097 16.1498C26.093 18.5587 27.3305 26.661 23.3958 35.5865C22.2711 37.8822 19.6295 42.8131 16.5366 48.0704C8.83562 61.102 2.37042 78.079 13.5061 79.9352C16.9356 80.2632 20.8148 79.3334 24.9734 77.4165C39.0234 71.8854 55.4945 56.0071 66.7362 39.8549ZM66.7362 3.82822C73.5382 1.91292 76.0131 6.07312 70.7281 17.6256C69.6208 15.7753 68.2797 14.0676 66.7362 12.5422C64.7697 10.517 62.4648 8.70994 59.936 6.84875C62.5221 5.36144 64.7748 4.3218 66.7362 3.82822Z" fill="white"/>
</svg>
