<svg width="300" height="297" viewBox="0 0 300 297" fill="none" xmlns="http://www.w3.org/2000/svg">
<path d="M61.5878 291V279.364H63.3435V284.92H63.4855L68.3662 279.364H70.5764L65.8832 284.602L70.5935 291H68.4798L64.7185 285.801L63.3435 287.381V291H61.5878ZM73.8753 285.818V291H72.1764V279.364H73.8526V283.693H73.9605C74.1651 283.223 74.4776 282.85 74.898 282.574C75.3185 282.297 75.8677 282.159 76.5457 282.159C77.1442 282.159 77.6669 282.282 78.1139 282.528C78.5647 282.775 78.9132 283.142 79.1594 283.631C79.4094 284.116 79.5344 284.722 79.5344 285.449V291H77.8355V285.653C77.8355 285.013 77.6707 284.517 77.3412 284.165C77.0116 283.809 76.5533 283.631 75.9662 283.631C75.5647 283.631 75.2048 283.716 74.8866 283.886C74.5723 284.057 74.3241 284.307 74.1423 284.636C73.9643 284.962 73.8753 285.356 73.8753 285.818ZM85.5776 291.176C84.7594 291.176 84.0454 290.989 83.4355 290.614C82.8257 290.239 82.3522 289.714 82.0151 289.04C81.6779 288.366 81.5094 287.578 81.5094 286.676C81.5094 285.771 81.6779 284.979 82.0151 284.301C82.3522 283.623 82.8257 283.097 83.4355 282.722C84.0454 282.347 84.7594 282.159 85.5776 282.159C86.3957 282.159 87.1098 282.347 87.7196 282.722C88.3294 283.097 88.8029 283.623 89.1401 284.301C89.4772 284.979 89.6457 285.771 89.6457 286.676C89.6457 287.578 89.4772 288.366 89.1401 289.04C88.8029 289.714 88.3294 290.239 87.7196 290.614C87.1098 290.989 86.3957 291.176 85.5776 291.176ZM85.5832 289.75C86.1135 289.75 86.5529 289.61 86.9014 289.33C87.2499 289.049 87.5075 288.676 87.6741 288.21C87.8446 287.744 87.9298 287.231 87.9298 286.67C87.9298 286.114 87.8446 285.602 87.6741 285.136C87.5075 284.667 87.2499 284.29 86.9014 284.006C86.5529 283.722 86.1135 283.58 85.5832 283.58C85.0491 283.58 84.606 283.722 84.2537 284.006C83.9052 284.29 83.6457 284.667 83.4753 285.136C83.3086 285.602 83.2253 286.114 83.2253 286.67C83.2253 287.231 83.3086 287.744 83.4753 288.21C83.6457 288.676 83.9052 289.049 84.2537 289.33C84.606 289.61 85.0491 289.75 85.5832 289.75ZM86.7423 281.227L85.5776 279.705L84.4071 281.227H82.873V281.142L84.8673 278.733H86.2821L88.2821 281.142V281.227H86.7423ZM93.3409 285.818V291H91.642V282.273H93.2727V283.693H93.3807C93.5814 283.231 93.8958 282.86 94.3239 282.58C94.7557 282.299 95.2992 282.159 95.9545 282.159C96.5492 282.159 97.0701 282.284 97.517 282.534C97.964 282.78 98.3106 283.148 98.5568 283.636C98.803 284.125 98.9261 284.729 98.9261 285.449V291H97.2273V285.653C97.2273 285.021 97.0625 284.527 96.733 284.17C96.4034 283.811 95.9508 283.631 95.375 283.631C94.9811 283.631 94.6307 283.716 94.3239 283.886C94.0208 284.057 93.7803 284.307 93.6023 284.636C93.428 284.962 93.3409 285.356 93.3409 285.818ZM104.964 294.455C104.27 294.455 103.674 294.364 103.174 294.182C102.678 294 102.272 293.759 101.958 293.46C101.644 293.161 101.409 292.833 101.253 292.477L102.714 291.875C102.816 292.042 102.952 292.218 103.123 292.403C103.297 292.593 103.532 292.754 103.827 292.886C104.127 293.019 104.511 293.085 104.981 293.085C105.625 293.085 106.157 292.928 106.577 292.614C106.998 292.303 107.208 291.807 107.208 291.125V289.409H107.1C106.998 289.595 106.85 289.801 106.657 290.028C106.467 290.256 106.206 290.453 105.873 290.619C105.539 290.786 105.106 290.869 104.572 290.869C103.882 290.869 103.261 290.708 102.708 290.386C102.159 290.061 101.723 289.581 101.401 288.949C101.083 288.312 100.924 287.53 100.924 286.602C100.924 285.674 101.081 284.879 101.395 284.216C101.714 283.553 102.149 283.045 102.702 282.693C103.255 282.337 103.882 282.159 104.583 282.159C105.125 282.159 105.562 282.25 105.895 282.432C106.229 282.61 106.488 282.818 106.674 283.057C106.863 283.295 107.009 283.506 107.111 283.688H107.236V282.273H108.901V291.193C108.901 291.943 108.727 292.559 108.378 293.04C108.03 293.521 107.558 293.877 106.964 294.108C106.373 294.339 105.706 294.455 104.964 294.455ZM104.947 289.46C105.435 289.46 105.848 289.347 106.185 289.119C106.526 288.888 106.784 288.559 106.958 288.131C107.136 287.699 107.225 287.182 107.225 286.58C107.225 285.992 107.138 285.475 106.964 285.028C106.789 284.581 106.534 284.233 106.197 283.983C105.859 283.729 105.443 283.602 104.947 283.602C104.435 283.602 104.009 283.735 103.668 284C103.327 284.261 103.07 284.617 102.895 285.068C102.725 285.519 102.64 286.023 102.64 286.58C102.64 287.152 102.727 287.653 102.901 288.085C103.075 288.517 103.333 288.854 103.674 289.097C104.019 289.339 104.443 289.46 104.947 289.46ZM119.688 282.273V283.636H114.921V282.273H119.688ZM116.199 280.182H117.898V288.438C117.898 288.767 117.947 289.015 118.046 289.182C118.144 289.345 118.271 289.456 118.426 289.517C118.586 289.574 118.758 289.602 118.943 289.602C119.08 289.602 119.199 289.593 119.301 289.574C119.404 289.555 119.483 289.54 119.54 289.528L119.847 290.932C119.748 290.97 119.608 291.008 119.426 291.045C119.245 291.087 119.017 291.11 118.745 291.114C118.298 291.121 117.881 291.042 117.495 290.875C117.108 290.708 116.796 290.451 116.557 290.102C116.318 289.754 116.199 289.316 116.199 288.79V280.182ZM121.667 291V282.273H123.366V291H121.667ZM121.866 281.108L120.11 278.489H121.9L123.224 281.108H121.866ZM125.751 291V282.273H127.382V283.693H127.49C127.672 283.212 127.969 282.837 128.382 282.568C128.795 282.295 129.289 282.159 129.865 282.159C130.448 282.159 130.937 282.295 131.331 282.568C131.729 282.841 132.022 283.216 132.212 283.693H132.303C132.511 283.227 132.842 282.856 133.297 282.58C133.751 282.299 134.293 282.159 134.922 282.159C135.714 282.159 136.359 282.407 136.859 282.903C137.363 283.4 137.615 284.148 137.615 285.148V291H135.916V285.307C135.916 284.716 135.755 284.288 135.433 284.023C135.111 283.758 134.727 283.625 134.28 283.625C133.727 283.625 133.297 283.795 132.99 284.136C132.683 284.473 132.53 284.907 132.53 285.438V291H130.837V285.199C130.837 284.725 130.689 284.345 130.393 284.057C130.098 283.769 129.714 283.625 129.24 283.625C128.918 283.625 128.621 283.71 128.348 283.881C128.079 284.047 127.861 284.28 127.695 284.58C127.532 284.879 127.45 285.225 127.45 285.619V291H125.751ZM148.4 282.273V283.636H143.633V282.273H148.4ZM144.912 280.182H146.611V288.438C146.611 288.767 146.66 289.015 146.758 289.182C146.857 289.345 146.984 289.456 147.139 289.517C147.298 289.574 147.47 289.602 147.656 289.602C147.792 289.602 147.912 289.593 148.014 289.574C148.116 289.555 148.196 289.54 148.253 289.528L148.559 290.932C148.461 290.97 148.321 291.008 148.139 291.045C147.957 291.087 147.73 291.11 147.457 291.114C147.01 291.121 146.593 291.042 146.207 290.875C145.821 290.708 145.508 290.451 145.27 290.102C145.031 289.754 144.912 289.316 144.912 288.79V280.182ZM152.266 285.818V291H150.567V279.364H152.243V283.693H152.351C152.556 283.223 152.868 282.85 153.289 282.574C153.709 282.297 154.258 282.159 154.936 282.159C155.535 282.159 156.058 282.282 156.505 282.528C156.955 282.775 157.304 283.142 157.55 283.631C157.8 284.116 157.925 284.722 157.925 285.449V291H156.226V285.653C156.226 285.013 156.061 284.517 155.732 284.165C155.402 283.809 154.944 283.631 154.357 283.631C153.955 283.631 153.595 283.716 153.277 283.886C152.963 284.057 152.715 284.307 152.533 284.636C152.355 284.962 152.266 285.356 152.266 285.818ZM162.832 291.193C162.279 291.193 161.779 291.091 161.332 290.886C160.885 290.678 160.531 290.377 160.269 289.983C160.012 289.589 159.883 289.106 159.883 288.534C159.883 288.042 159.978 287.636 160.167 287.318C160.356 287 160.612 286.748 160.934 286.562C161.256 286.377 161.616 286.237 162.014 286.142C162.411 286.047 162.817 285.975 163.23 285.926C163.752 285.866 164.177 285.816 164.502 285.778C164.828 285.737 165.065 285.67 165.212 285.58C165.36 285.489 165.434 285.341 165.434 285.136V285.097C165.434 284.6 165.294 284.216 165.014 283.943C164.737 283.67 164.324 283.534 163.775 283.534C163.203 283.534 162.752 283.661 162.423 283.915C162.097 284.165 161.872 284.443 161.747 284.75L160.15 284.386C160.339 283.856 160.616 283.428 160.98 283.102C161.347 282.773 161.769 282.534 162.247 282.386C162.724 282.235 163.226 282.159 163.752 282.159C164.101 282.159 164.47 282.201 164.86 282.284C165.254 282.364 165.622 282.511 165.962 282.727C166.307 282.943 166.589 283.252 166.809 283.653C167.029 284.051 167.139 284.568 167.139 285.205V291H165.48V289.807H165.411C165.302 290.027 165.137 290.242 164.917 290.455C164.697 290.667 164.415 290.843 164.07 290.983C163.726 291.123 163.313 291.193 162.832 291.193ZM163.201 289.83C163.671 289.83 164.072 289.737 164.406 289.551C164.743 289.366 164.998 289.123 165.173 288.824C165.351 288.521 165.44 288.197 165.44 287.852V286.727C165.379 286.788 165.262 286.845 165.087 286.898C164.917 286.947 164.722 286.991 164.502 287.028C164.283 287.062 164.069 287.095 163.86 287.125C163.652 287.152 163.478 287.174 163.337 287.193C163.008 287.235 162.707 287.305 162.434 287.403C162.165 287.502 161.949 287.644 161.786 287.83C161.627 288.011 161.548 288.254 161.548 288.557C161.548 288.977 161.703 289.295 162.014 289.511C162.324 289.723 162.72 289.83 163.201 289.83ZM160.9 281.227L163.207 279.256H164.474L166.786 281.227H165.116L163.855 280.102L162.582 281.227H160.9ZM166.178 279.966L167.366 277.892H169.099L167.423 279.966H166.178ZM170.263 294.273C170.009 294.273 169.778 294.252 169.57 294.21C169.361 294.172 169.206 294.131 169.104 294.085L169.513 292.693C169.823 292.777 170.1 292.813 170.342 292.801C170.585 292.79 170.799 292.699 170.984 292.528C171.174 292.358 171.34 292.08 171.484 291.693L171.695 291.114L168.501 282.273H170.32L172.53 289.045H172.621L174.831 282.273H176.655L173.058 292.165C172.892 292.619 172.679 293.004 172.422 293.318C172.164 293.636 171.857 293.875 171.501 294.034C171.145 294.193 170.732 294.273 170.263 294.273ZM185.953 291.17C185.248 291.17 184.62 290.991 184.066 290.631C183.517 290.267 183.085 289.75 182.771 289.08C182.46 288.405 182.305 287.597 182.305 286.653C182.305 285.71 182.462 284.903 182.777 284.233C183.095 283.562 183.53 283.049 184.084 282.693C184.637 282.337 185.263 282.159 185.964 282.159C186.506 282.159 186.941 282.25 187.271 282.432C187.604 282.61 187.862 282.818 188.044 283.057C188.229 283.295 188.373 283.506 188.476 283.688H188.578V279.364H190.277V291H188.618V289.642H188.476C188.373 289.828 188.226 290.04 188.032 290.278C187.843 290.517 187.582 290.725 187.248 290.903C186.915 291.081 186.483 291.17 185.953 291.17ZM186.328 289.722C186.816 289.722 187.229 289.593 187.566 289.335C187.907 289.074 188.165 288.712 188.339 288.25C188.517 287.788 188.606 287.25 188.606 286.636C188.606 286.03 188.519 285.5 188.345 285.045C188.171 284.591 187.915 284.237 187.578 283.983C187.241 283.729 186.824 283.602 186.328 283.602C185.816 283.602 185.39 283.735 185.049 284C184.709 284.265 184.451 284.627 184.277 285.085C184.106 285.544 184.021 286.061 184.021 286.636C184.021 287.22 184.108 287.744 184.282 288.21C184.457 288.676 184.714 289.045 185.055 289.318C185.4 289.587 185.824 289.722 186.328 289.722ZM201.12 281.852H202.375C202.371 282.458 202.286 282.966 202.12 283.375C201.957 283.78 201.673 284.085 201.267 284.29C200.862 284.494 200.3 284.597 199.58 284.597V283.614C200.068 283.614 200.419 283.553 200.631 283.432C200.847 283.307 200.981 283.116 201.034 282.858C201.091 282.597 201.12 282.261 201.12 281.852ZM198.353 287.381V282.273H200.051V291H198.381V289.489H198.29C198.089 289.955 197.769 290.343 197.33 290.653C196.89 290.96 196.341 291.114 195.682 291.114C195.125 291.114 194.631 290.991 194.199 290.744C193.767 290.494 193.428 290.125 193.182 289.636C192.94 289.148 192.818 288.544 192.818 287.824V282.273H194.517V287.619C194.517 288.214 194.682 288.687 195.012 289.04C195.345 289.392 195.773 289.568 196.296 289.568C196.614 289.568 196.93 289.489 197.245 289.33C197.563 289.17 197.826 288.93 198.034 288.608C198.246 288.286 198.353 287.877 198.353 287.381ZM194.733 281.216L193.591 281.182C193.591 280.553 193.76 280.051 194.097 279.676C194.438 279.301 194.858 279.114 195.358 279.114C195.589 279.114 195.792 279.153 195.966 279.233C196.14 279.309 196.303 279.398 196.455 279.5C196.61 279.598 196.764 279.687 196.915 279.767C197.07 279.843 197.243 279.881 197.432 279.881C197.652 279.881 197.83 279.797 197.966 279.631C198.106 279.464 198.176 279.258 198.176 279.011L199.296 279.085C199.296 279.718 199.125 280.216 198.784 280.58C198.443 280.939 198.025 281.121 197.529 281.125C197.26 281.125 197.036 281.087 196.858 281.011C196.684 280.932 196.529 280.843 196.392 280.744C196.256 280.642 196.116 280.551 195.972 280.472C195.828 280.392 195.656 280.352 195.455 280.352C195.243 280.352 195.068 280.436 194.932 280.602C194.8 280.765 194.733 280.97 194.733 281.216ZM209.357 279.364V291H207.658V279.364H209.357ZM211.742 291V282.273H213.441V291H211.742ZM212.6 280.926C212.305 280.926 212.051 280.828 211.839 280.631C211.63 280.43 211.526 280.191 211.526 279.915C211.526 279.634 211.63 279.396 211.839 279.199C212.051 278.998 212.305 278.898 212.6 278.898C212.895 278.898 213.147 278.998 213.356 279.199C213.568 279.396 213.674 279.634 213.674 279.915C213.674 280.191 213.568 280.43 213.356 280.631C213.147 280.828 212.895 280.926 212.6 280.926ZM219.588 291.176C218.728 291.176 217.987 290.992 217.366 290.625C216.749 290.254 216.271 289.733 215.934 289.062C215.601 288.388 215.434 287.598 215.434 286.693C215.434 285.799 215.601 285.011 215.934 284.33C216.271 283.648 216.741 283.116 217.343 282.733C217.95 282.35 218.658 282.159 219.468 282.159C219.961 282.159 220.438 282.241 220.9 282.403C221.362 282.566 221.777 282.822 222.145 283.17C222.512 283.519 222.802 283.972 223.014 284.528C223.226 285.081 223.332 285.754 223.332 286.545V287.148H216.395V285.875H221.667C221.667 285.428 221.576 285.032 221.395 284.688C221.213 284.339 220.957 284.064 220.628 283.864C220.302 283.663 219.919 283.562 219.48 283.562C219.003 283.562 218.586 283.68 218.23 283.915C217.878 284.146 217.605 284.449 217.412 284.824C217.222 285.195 217.128 285.598 217.128 286.034V287.028C217.128 287.612 217.23 288.108 217.434 288.517C217.643 288.926 217.932 289.239 218.304 289.455C218.675 289.667 219.109 289.773 219.605 289.773C219.927 289.773 220.22 289.727 220.486 289.636C220.751 289.542 220.98 289.402 221.173 289.216C221.366 289.03 221.514 288.801 221.616 288.528L223.224 288.818C223.095 289.292 222.864 289.706 222.531 290.062C222.201 290.415 221.787 290.689 221.287 290.886C220.79 291.08 220.224 291.176 219.588 291.176ZM220.571 281.227L219.406 279.705L218.236 281.227H216.701V281.142L218.696 278.733H220.111L222.111 281.142V281.227H220.571ZM219.4 294.011C219.109 294.011 218.857 293.913 218.645 293.716C218.432 293.519 218.326 293.28 218.326 293C218.326 292.72 218.432 292.481 218.645 292.284C218.857 292.087 219.109 291.989 219.4 291.989C219.696 291.989 219.948 292.087 220.156 292.284C220.368 292.481 220.474 292.72 220.474 293C220.474 293.28 220.368 293.519 220.156 293.716C219.948 293.913 219.696 294.011 219.4 294.011ZM230.845 287.381V282.273H232.55V291H230.88V289.489H230.789C230.588 289.955 230.266 290.343 229.823 290.653C229.383 290.96 228.836 291.114 228.181 291.114C227.62 291.114 227.124 290.991 226.692 290.744C226.264 290.494 225.927 290.125 225.681 289.636C225.438 289.148 225.317 288.544 225.317 287.824V282.273H227.016V287.619C227.016 288.214 227.181 288.687 227.51 289.04C227.84 289.392 228.268 289.568 228.794 289.568C229.113 289.568 229.429 289.489 229.743 289.33C230.061 289.17 230.325 288.93 230.533 288.608C230.745 288.286 230.849 287.877 230.845 287.381Z" fill="#082555"/>
<path opacity="0.5" d="M290.278 92.3653C288.96 94.0792 287.797 95.9564 286.711 97.9152C283.377 103.71 280.818 110.321 278.88 116.768C278.26 119.462 277.95 122.155 278.105 124.93C278.182 127.705 278.725 130.561 279.811 133.418C280.431 135.295 280.896 137.254 281.361 139.213C290.743 181.082 266.862 235.193 263.76 241.967H25.7976C24.9447 241.069 24.9447 239.927 25.9526 238.539C35.5673 225.317 20.9902 196.017 7.49871 167.207C-5.99282 138.397 -5.60514 76.6951 45.5696 81.2655C60.3793 82.5714 73.7158 78.6538 83.0203 66.085C93.9531 51.3942 99.8459 33.3571 113.88 21.2779C124.891 11.8105 139.7 5.36287 154.045 9.1172C168.622 12.9531 179.399 26.3381 192.348 33.6835C201.808 39.0702 212.741 41.5187 223.441 40.6209C234.761 39.6415 244.841 34.3365 254.999 29.3579C264.923 24.3793 275.779 18.6662 285.858 26.6646C304.312 42.4164 303.537 73.104 290.278 92.3653Z" fill="#E8E8E8"/>
<g clip-path="url(#clip0_9376_238074)">
<path d="M277 241H12V242H277V241Z" fill="#00214F"/>
<path d="M78.1355 63.6282L94.444 103.014L57.3792 118.417L37.3916 70.1192L65.5609 58.4023L78.1355 63.6282Z" fill="#A8BCD8"/>
<path d="M78.1371 63.6285L71.438 66.3789C70.2299 66.874 68.8022 66.3239 68.308 65.0587L65.5625 58.3477L78.1371 63.5735V63.6285Z" fill="#8FAACE"/>
<path d="M59.236 94.7039L64.8164 97.0195L72.4863 78.4697L66.9059 76.1541L59.236 94.7039Z" fill="white"/>
<path d="M57.8261 79.894L55.5146 85.4844L74.0315 93.168L76.343 87.5776L57.8261 79.894Z" fill="white"/>
<path d="M170.962 60.8498C170.193 60.9847 169.446 60.4905 169.309 59.721L167.996 52.9205C167.86 52.1511 168.352 51.4045 169.12 51.2696C171.277 50.8735 172.73 48.7248 172.271 46.5988C171.87 44.4395 169.719 42.9811 167.595 43.435C165.438 43.831 163.986 45.9797 164.445 48.1058C164.581 48.8752 164.089 49.6218 163.321 49.7567C162.552 49.8917 161.805 49.3974 161.668 48.6279C160.936 44.963 163.372 41.3211 167.066 40.6552C170.727 39.9315 174.373 42.3784 175.047 46.0766C175.661 49.27 173.942 52.4213 171.028 53.6393L172.086 59.1988C172.223 59.9683 171.731 60.7149 170.962 60.8498Z" fill="#A8BCD8"/>
<path d="M174.36 65.1319C174.616 66.3729 173.82 67.5262 172.58 67.7785C171.34 68.0308 170.186 67.2315 169.931 65.9906C169.675 64.7496 170.471 63.5964 171.711 63.344C172.95 63.0917 174.105 63.891 174.36 65.1319Z" fill="#A8BCD8"/>
<path d="M254.032 99.1276C250.999 96.0897 250.999 91.1953 254.032 88.1573C257.064 85.1194 261.95 85.1194 264.982 88.1573C268.015 91.1953 268.015 96.0897 264.982 99.1276C261.95 102.165 257.064 102.165 254.032 99.1276ZM255.043 98.1149C257.513 100.59 261.557 100.59 264.028 98.1149C266.499 95.6396 266.499 91.5891 264.028 89.1137C261.557 86.6384 257.513 86.6384 255.043 89.1137C252.572 91.5891 252.572 95.6396 255.043 98.1149Z" fill="#A8BCD8"/>
<path d="M244.541 107.679L254.031 98.1719L255.042 99.1845L245.551 108.692C245.271 108.973 244.821 108.973 244.541 108.692C244.26 108.411 244.26 107.961 244.541 107.679Z" fill="#A8BCD8"/>
<path d="M239.824 201.519C244.541 202.588 253.246 198.031 254.537 191.617C255.773 185.654 254.706 179.016 260.097 174.571C265.544 170.071 272.788 154.487 271.104 151.843C268.689 148.074 256.783 152.068 252.01 157.694C247.237 163.32 248.978 167.089 245.664 171.308C242.295 175.528 237.634 180.478 235.612 187.004C233.59 193.53 239.768 201.462 239.768 201.462L239.824 201.519Z" fill="#A8BCD8"/>
<path d="M240.386 201.63C241.116 199.324 242.296 197.13 243.924 195.779C245.328 194.598 246.732 193.979 248.08 193.36C250.382 192.291 252.404 191.391 254.482 187.566C254.706 187.172 254.987 186.722 255.268 186.328C255.1 188.072 254.931 189.872 254.594 191.616C253.359 197.805 245.216 202.249 240.442 201.63H240.386Z" fill="#8FAACE"/>
<path d="M229.659 236.23C229.884 236.23 230.165 236.117 230.221 235.892C230.277 235.555 237.297 201.575 254.986 168.102C255.099 167.877 254.986 167.595 254.818 167.483C254.593 167.37 254.312 167.483 254.2 167.652C236.398 201.237 229.378 235.329 229.322 235.667C229.322 235.892 229.435 236.173 229.659 236.23Z" fill="#8FAACE"/>
<path d="M242.801 213.612C239.712 210.068 241.509 200.167 245.16 197.185C248.754 194.203 252.572 195.047 256.11 188.409C259.424 182.277 272.059 178.282 273.07 179.239C275.036 181.095 272.621 191.953 267.398 195.779C258.918 201.967 260.098 208.38 255.661 212.206C249.933 217.157 242.745 213.612 242.745 213.612H242.801Z" fill="#A8BCD8"/>
<path d="M232.355 236.905C232.58 236.961 232.861 236.792 232.917 236.567C237.915 216.427 256.166 196.343 256.391 196.118C256.559 195.949 256.559 195.612 256.391 195.443C256.222 195.274 255.885 195.274 255.717 195.443C255.548 195.668 237.129 215.921 232.018 236.286C231.962 236.511 232.131 236.792 232.355 236.849V236.905Z" fill="#8FAACE"/>
<path d="M205.79 81.8572C204.106 83.545 201.41 83.545 199.725 81.8572C198.041 80.1695 198.041 77.4692 199.725 75.7814C201.41 74.0937 204.106 74.0937 205.79 75.7814C207.475 77.4692 207.475 80.1695 205.79 81.8572Z" fill="#00214F"/>
<path d="M203.232 84.6061C204.942 82.8925 204.853 80.025 203.033 78.2015C201.213 76.378 198.35 76.289 196.64 78.0026C194.929 79.7163 195.018 82.5837 196.838 84.4072C198.659 86.2307 201.521 86.3198 203.232 84.6061Z" fill="#F4CD00"/>
<path d="M204.836 87.5398C204.836 93.6719 200.344 98.6225 194.784 98.6225C189.225 98.6225 184.732 89.7901 184.732 85.9646C184.732 79.8325 190.123 76.457 195.627 76.457C201.13 76.457 204.78 81.4077 204.78 87.5398H204.836Z" fill="#00214F"/>
<path d="M190.461 103.402C185.407 105.146 180.914 110.885 172.098 123.543C172.098 123.543 174.737 124.049 181.027 125.624L192.764 113.079L190.517 103.402H190.461Z" fill="#1E6DDA"/>
<path d="M190.459 103.402H201.185L208.823 105.259C211.181 109.759 206.801 127.762 210.676 143.964C210.676 143.964 191.526 147.227 181.586 143.964C181.586 143.964 186.079 136.876 183.889 126.58C181.98 117.636 181.137 113.191 184.394 107.284L190.459 103.402Z" fill="#1975F4"/>
<path d="M203.132 89.7089C202.571 89.2589 201.672 89.1464 200.942 89.7089V87.2899C200.942 84.0269 198.303 81.3828 195.046 81.3828C190.16 81.3828 186.173 85.3771 186.173 90.2715V93.647C186.173 96.5161 187.801 98.9915 190.216 100.229V105.124L200.942 103.773V94.5471C202.908 95.0534 204.48 90.9466 203.132 89.7652V89.7089Z" fill="#FFC2BD"/>
<path d="M190.404 99.9161V101.435C197.649 103.01 199.726 96.7656 199.726 96.7656C196.02 100.985 191.864 100.422 190.404 99.8598V99.9161Z" fill="#E3A29C"/>
<path d="M208.823 105.262C206.689 106.049 205.341 114.488 207.251 117.695L213.99 131.196L213.26 141.942C218.258 144.248 217.921 142.617 217.921 142.617C217.921 142.617 220.448 136.147 220.448 129.79C220.448 123.433 213.316 107.118 208.823 105.318V105.262Z" fill="#FFC2BD"/>
<path d="M201.186 92.8856C201.522 92.548 201.859 92.098 201.579 91.8729C201.579 91.8729 201.522 91.8167 201.466 91.7604C201.466 91.7604 201.354 91.6479 201.354 91.5916C201.298 91.4791 201.242 91.3666 201.242 91.1978C201.242 90.9166 201.242 90.6915 201.242 90.4102C201.242 90.2977 201.354 90.1289 201.466 90.0164C201.635 89.9039 201.747 89.9039 201.859 89.8477C202.14 89.8477 202.365 89.8477 202.646 89.9602C202.926 90.0727 203.095 90.2977 203.151 90.579C203.151 90.804 203.151 91.0853 203.151 91.3104C203.151 90.8603 202.926 90.4102 202.533 90.2977C202.365 90.2977 202.14 90.2977 201.972 90.2977C201.859 90.2977 201.747 90.354 201.747 90.4102C201.747 90.4102 201.691 90.5227 201.635 90.579C201.579 90.7478 201.579 90.9728 201.635 91.1416C201.635 91.2541 201.635 91.3104 201.691 91.4229C201.691 91.4229 201.691 91.4791 201.747 91.5354C201.747 91.5354 201.747 91.5916 201.859 91.6479C201.916 91.7604 202.028 91.9292 201.972 92.0417C201.972 92.2105 201.859 92.323 201.803 92.4355C201.635 92.6043 201.41 92.7731 201.242 92.8293L201.186 92.8856Z" fill="#E3A29C"/>
<path opacity="0.25" d="M209.555 110.944L206.522 110.438C206.522 115.388 202.872 124.671 194.336 123.771C194.336 123.771 207.084 128.327 206.297 132.265C205.511 136.203 193.718 139.86 191.416 140.142C189.113 140.423 191.36 141.717 201.075 141.717C210.79 141.717 205.174 142.954 205.399 144.642C208.544 144.305 210.622 143.911 210.622 143.911C207.701 131.759 209.442 118.595 209.498 110.888L209.555 110.944Z" fill="#184C95"/>
<path d="M212.474 144.08L208.486 143.63C208.037 143.63 207.644 143.18 207.644 142.73C207.644 142.224 208.037 141.773 208.599 141.773H212.474V144.08Z" fill="#FFC2BD"/>
<path d="M201.131 103.402H190.405C190.405 103.402 188.833 105.878 190.405 107.003C190.798 107.284 191.416 107.453 192.146 107.565L192.652 113.866L195.123 107.397C198.043 106.89 201.131 105.371 201.131 103.402Z" fill="#FFC2BD"/>
<path d="M193.55 95.5837C193.55 96.09 193.213 96.4838 192.82 96.4838C192.427 96.4838 192.09 96.09 192.09 95.5837C192.09 95.0774 192.427 94.6836 192.82 94.6836C193.213 94.6836 193.55 95.0774 193.55 95.5837Z" fill="#E3A29C"/>
<path d="M186.024 104.25L189.73 106.894L181.251 125.122C179.903 128.047 176.14 128.835 173.725 126.753C171.704 125.009 171.423 122.027 173.108 119.946L186.024 104.25Z" fill="#FFC2BD"/>
<path d="M186.025 104.25L185.463 101.324C185.463 101.268 185.463 101.156 185.463 101.099L186.193 97.33C186.193 97.2175 186.25 97.105 186.362 96.9925L187.204 96.0923C187.429 95.811 187.878 95.811 188.103 96.0923L188.327 96.3174C188.552 96.5424 188.552 96.8799 188.384 97.105L187.878 97.8363C187.822 97.9488 187.766 98.1176 187.766 98.2301C187.766 98.7927 188.552 99.0177 188.889 98.5677L191.472 95.3047C191.697 95.0797 192.034 94.9672 192.315 95.1359L195.403 97.0487C195.684 97.2175 195.796 97.555 195.628 97.8363L193.045 103.575C193.045 103.631 192.988 103.743 192.932 103.8L189.731 106.838L186.025 104.193V104.25Z" fill="#FFC2BD"/>
<path d="M187.204 96.0923C187.372 95.8673 187.709 95.811 187.934 95.9236C188.046 95.9798 188.158 96.0923 188.271 96.1486C188.383 96.2048 188.495 96.3174 188.551 96.4861C188.551 96.5987 188.608 96.7674 188.551 96.9362C188.551 97.105 188.439 97.2175 188.327 97.33C188.214 97.555 188.046 97.7801 187.934 98.0051C187.821 98.2301 187.934 98.4551 188.046 98.6239C188.214 98.7927 188.439 98.7927 188.664 98.6802C188.832 98.5677 189.001 98.2864 189.169 98.1176L189.675 97.4988L190.629 96.2611L191.135 95.6423L191.359 95.3047C191.472 95.1922 191.584 95.0797 191.752 95.0234C191.921 95.0234 192.089 95.0234 192.258 95.0234C192.426 95.0797 192.539 95.1922 192.651 95.2485L193.325 95.6423L194.673 96.4861L195.346 96.9362C195.459 96.9925 195.627 97.105 195.74 97.2175C195.852 97.3863 195.908 97.555 195.908 97.7238C195.908 97.8926 195.852 98.0613 195.796 98.1739L195.627 98.5114L195.29 99.2428C194.841 100.199 194.392 101.212 193.943 102.168L193.269 103.631C193.269 103.743 193.156 103.912 193.044 104.025L192.763 104.306L192.202 104.869C191.415 105.6 190.629 106.275 189.843 107.006C190.573 106.219 191.359 105.487 192.089 104.756L192.651 104.193L192.932 103.912C193.044 103.856 193.044 103.743 193.1 103.631L193.718 102.168C194.111 101.212 194.56 100.199 195.01 99.2428L195.346 98.5114C195.459 98.2864 195.627 98.0051 195.627 97.8363C195.627 97.7238 195.627 97.6675 195.571 97.555C195.571 97.4988 195.459 97.4425 195.346 97.3863L194.673 96.9925L193.325 96.1486L192.651 95.6985C192.426 95.5298 192.258 95.4735 192.089 95.5298C191.977 95.5298 191.921 95.586 191.865 95.6985L191.64 96.0361L191.135 96.6549L190.124 97.8926L189.618 98.5114L189.338 98.7927C189.281 98.9052 189.169 99.0177 189.001 99.074C188.72 99.2428 188.327 99.1865 188.102 98.9615C187.877 98.7364 187.821 98.3426 187.99 98.1176C188.158 97.8926 188.327 97.6675 188.439 97.4425C188.495 97.33 188.608 97.2175 188.664 97.105C188.664 96.9925 188.664 96.8799 188.664 96.7674C188.664 96.6549 188.551 96.5424 188.439 96.4861C188.327 96.3736 188.271 96.2611 188.158 96.2048C187.934 96.0923 187.653 96.0923 187.428 96.3174L187.204 96.0923Z" fill="#E3A29C"/>
<path d="M192.763 95.4727C192.651 96.204 192.426 96.9354 192.089 97.6104C191.921 97.948 191.753 98.2855 191.472 98.5668C191.247 98.8481 190.966 99.1294 190.629 99.2982C190.854 99.0169 191.022 98.6793 191.191 98.3981C191.359 98.0605 191.528 97.7792 191.696 97.4417C192.033 96.8228 192.37 96.1477 192.763 95.5289V95.4727Z" fill="#E3A29C"/>
<path d="M193.885 96.1484C193.885 96.8235 193.661 97.4986 193.38 98.1175C193.099 98.7363 192.706 99.3551 192.145 99.7489C192.425 99.1301 192.706 98.5113 192.987 97.9487C193.268 97.3298 193.548 96.711 193.885 96.1484Z" fill="#E3A29C"/>
<path d="M194.784 96.7656C194.784 97.497 194.559 98.1721 194.335 98.7909C194.054 99.4097 193.773 100.085 193.211 100.535L193.941 98.6221C194.222 98.0033 194.447 97.3845 194.784 96.7656Z" fill="#E3A29C"/>
<path d="M208.823 105.262C206.689 106.049 205.341 114.488 207.251 117.695L210.395 125.064L218.201 118.82C215.169 112.575 211.238 106.218 208.767 105.262H208.823Z" fill="#1975F4"/>
<path d="M198.66 79.6621C195.74 78.4245 187.036 78.987 185.856 82.7V87.2007C185.856 87.2007 186.923 87.2569 188.384 87.3132L189.114 83.8252L189.507 87.3694C191.079 87.3694 192.876 87.3694 194.336 87.2569L194.786 84.7253L195.347 87.4257L197.762 87.8757C197.762 87.8757 200.12 91.2512 199.952 99.6336L201.075 89.451C201.075 89.451 201.524 80.9561 198.548 79.7184L198.66 79.6621Z" fill="#00214F"/>
<path d="M151.937 135.191L150.477 131.084C148.904 126.583 144.636 123.602 139.863 123.602H91.6798C85.5024 123.602 80.4482 128.665 80.4482 134.853V229.928C80.4482 236.117 85.5024 241.18 91.6798 241.18H225.335C231.512 241.18 236.566 236.117 236.566 229.928V153.981C236.566 147.792 231.512 142.729 225.335 142.729H162.551C157.777 142.729 153.565 139.748 151.937 135.247V135.191Z" fill="#0C499D"/>
<path d="M60.9621 182.896C60.6813 182.896 60.4567 182.727 60.4005 182.446L53.9986 154.936C53.9424 154.655 54.1109 154.317 54.3917 154.261C54.6724 154.205 55.0094 154.373 55.0655 154.655L61.4675 182.165C61.5237 182.446 61.3552 182.783 61.0744 182.84H60.9621V182.896Z" fill="#184C95"/>
<path d="M65.9599 204.498C65.6791 204.498 65.4544 204.329 65.3983 204.048L61.9727 189.252C61.9165 188.971 62.085 188.633 62.3658 188.577C62.6466 188.521 62.9835 188.69 63.0397 188.971L66.4653 203.767C66.5214 204.048 66.353 204.386 66.0722 204.442H65.9599V204.498Z" fill="#184C95"/>
<path d="M236.566 228.016V229.872C236.566 236.061 231.512 241.124 225.334 241.124H89.8824C83.6489 241.124 77.5839 236.623 76.2922 230.997L56.4124 145.486C55.1208 139.916 59.108 135.359 65.2853 135.359H113.469C118.242 135.359 123.128 138.06 125.655 142.11L127.957 145.823C130.484 149.874 135.37 152.574 140.087 152.574H202.871C209.105 152.574 215.17 157.131 216.462 162.701L231.793 228.691C232.13 229.985 233.477 230.716 234.713 230.379C235.78 230.097 236.51 229.141 236.51 228.072L236.566 228.016Z" fill="#1975F4"/>
<path d="M138.178 210.744L130.147 204.387L150.645 176.539L158.676 182.896L138.178 210.744Z" fill="white"/>
<path d="M124.533 182.896L129.25 176.539L164.292 204.387L159.631 210.744L124.533 182.896Z" fill="white"/>
<path d="M167.381 203.995L160.025 214.009L151.489 207.202L148.625 204.895C149.579 202.588 150.983 200.394 152.836 198.538C154.016 197.356 155.363 196.344 156.767 195.5L159.744 197.863L167.437 203.939L167.381 203.995Z" fill="white"/>
<path d="M179.904 224.978C172.435 232.46 160.305 232.46 152.836 224.978C145.367 217.496 145.367 205.344 152.836 197.862C160.305 190.379 172.435 190.379 179.904 197.862C187.373 205.344 187.373 217.496 179.904 224.978ZM177.433 222.503C183.554 216.37 183.554 206.413 177.433 200.281C171.311 194.149 161.372 194.149 155.25 200.281C149.129 206.413 149.129 216.37 155.25 222.503C161.372 228.635 171.311 228.635 177.433 222.503Z" fill="#F4CD00"/>
<path d="M200.906 248.492L177.545 225.089L180.016 222.613L203.377 246.016C204.051 246.692 204.051 247.817 203.377 248.492C202.704 249.167 201.58 249.167 200.906 248.492Z" fill="#F4CD00"/>
<path opacity="0.1" d="M166.458 227C175.548 227 182.917 219.613 182.917 210.5C182.917 201.387 175.548 194 166.458 194C157.368 194 150 201.387 150 210.5C150 219.613 157.368 227 166.458 227Z" fill="#9EBDE8"/>
<path opacity="0.5" d="M168.22 198.004C178.131 198.004 183.794 212.671 178.721 218.821C178.721 218.821 179.193 212.671 176.007 206.875C172.704 200.843 168.22 198.004 168.22 198.004Z" fill="#9EBDE8"/>
<path d="M217.867 141.043H212.7C212.195 141.043 211.802 141.437 211.802 141.943V144.812C211.802 144.812 211.802 145.544 212.644 145.544H212.756C213.206 145.544 213.543 145.206 213.543 144.812C213.543 145.206 213.936 145.544 214.329 145.544H214.441C214.89 145.544 215.227 145.206 215.227 144.812C215.227 145.206 215.62 145.544 216.014 145.544H216.126C216.968 145.544 216.912 144.868 216.912 144.475C216.912 144.868 217.305 145.206 217.698 145.206H217.811C218.26 145.206 218.597 144.868 218.597 144.475V141.943C218.597 141.437 218.204 141.043 217.698 141.043H217.867Z" fill="#FFC2BD"/>
<path d="M213.542 141.043C213.71 141.662 213.766 142.281 213.766 142.899C213.766 143.518 213.766 144.137 213.542 144.756C213.373 144.137 213.317 143.518 213.317 142.899C213.317 142.281 213.317 141.662 213.542 141.043Z" fill="#E3A29C"/>
<path d="M215.282 141.043C215.451 141.662 215.507 142.281 215.507 142.899C215.507 143.518 215.507 144.137 215.282 144.756C215.114 144.137 215.058 143.518 215.058 142.899C215.058 142.281 215.058 141.662 215.282 141.043Z" fill="#E3A29C"/>
<path d="M217.022 141.043C217.191 141.606 217.247 142.168 217.247 142.787C217.247 143.35 217.247 143.912 217.022 144.531C216.854 143.968 216.798 143.406 216.798 142.787C216.798 142.224 216.798 141.662 217.022 141.043Z" fill="#E3A29C"/>
<path d="M232.914 63.1241C232.465 63.1241 232.184 62.7303 232.184 62.3365L232.296 58.511C232.296 58.0609 232.689 57.7796 233.082 57.7796C234.318 57.7796 235.329 56.8795 235.329 55.6418C235.329 54.4041 234.43 53.3915 233.195 53.3915C231.959 53.3915 230.948 54.2916 230.948 55.5293C230.948 55.9794 230.555 56.2607 230.162 56.2607C229.713 56.2607 229.432 55.8668 229.432 55.473C229.488 53.3915 231.229 51.8163 233.307 51.8726C235.385 51.9288 236.957 53.6728 236.901 55.7543C236.845 57.5546 235.497 59.0173 233.812 59.2986L233.7 62.3927C233.7 62.8428 233.307 63.1241 232.914 63.1241Z" fill="#A8BCD8"/>
<path d="M234.149 65.8252C234.149 66.5002 233.531 67.0628 232.857 67.0066C232.183 66.9503 231.622 66.3877 231.678 65.7126C231.734 65.0375 232.295 64.475 232.969 64.5312C233.643 64.5312 234.205 65.1501 234.149 65.8252Z" fill="#A8BCD8"/>
<path d="M215.731 79.0439L219.437 67.1735C218.09 64.8107 217.416 62.1666 217.416 59.41C217.416 50.69 224.492 43.6016 233.196 43.6016C241.9 43.6016 248.976 50.69 248.976 59.41C248.976 68.1299 241.9 75.2184 233.196 75.2184C224.492 75.2184 227.693 74.487 225.334 73.0806L215.787 79.0439H215.731ZM233.196 45.2893C225.446 45.2893 219.1 51.6464 219.1 59.41C219.1 67.1735 219.774 64.4731 221.066 66.6109L221.234 66.9485L218.651 75.2184L225.222 71.1115L225.671 71.3928C227.917 72.7993 230.5 73.5306 233.14 73.5306C240.89 73.5306 247.235 67.1735 247.235 59.41C247.235 51.6464 240.89 45.2893 233.14 45.2893H233.196Z" fill="#A8BCD8"/>
<path d="M142.996 81.3427L136.674 110.959L108.834 105.03L116.583 68.7266L137.749 73.2339L142.996 81.3427Z" fill="#A8BCD8"/>
<path d="M142.996 81.3467L137.962 80.2747C137.046 80.0797 136.447 79.153 136.643 78.2358L137.719 73.1914L142.966 81.3004L142.996 81.3467Z" fill="#98B0D0"/>
<path d="M125.69 93.1184C125.309 93.0372 125.077 92.6283 125.159 92.2461L126.007 88.8312C126.089 88.4491 126.497 88.2165 126.879 88.2977C127.976 88.5714 129.071 87.9256 129.346 86.8255C129.62 85.7254 128.977 84.6296 127.879 84.3559C126.782 84.0822 125.687 84.728 125.412 85.8281C125.331 86.2102 124.922 86.4428 124.541 86.3616C124.159 86.2804 123.928 85.8715 124.009 85.4894C124.485 83.6331 126.359 82.514 128.173 82.9802C130.025 83.4546 131.14 85.33 130.672 87.148C130.292 88.7449 128.786 89.8225 127.203 89.7651L126.493 92.5304C126.412 92.9125 126.003 93.1451 125.622 93.0639L125.69 93.1184Z" fill="white"/>
<path d="M126.275 95.7997C126.144 96.4112 125.504 96.7943 124.902 96.6261C124.292 96.4961 123.91 95.8556 124.079 95.2522C124.248 94.6489 124.849 94.2577 125.451 94.4258C126.054 94.594 126.443 95.1964 126.275 95.7997Z" fill="white"/>
</g>
<defs>
<clipPath id="clip0_9376_238074">
<rect width="259" height="249" fill="white" transform="translate(18)"/>
</clipPath>
</defs>
</svg>
