<svg width="15" height="15" viewBox="0 0 15 15" fill="none" xmlns="http://www.w3.org/2000/svg">
<path d="M5.5 0C8.53757 0 11 2.46243 11 5.5C11 6.74832 10.5841 7.89951 9.88336 8.82257L14.0303 12.9697C14.3232 13.2626 14.3232 13.7374 14.0303 14.0303C13.7641 14.2966 13.3474 14.3208 13.0538 14.1029L12.9697 14.0303L8.82257 9.88336C7.89951 10.5841 6.74832 11 5.5 11C2.46243 11 0 8.53757 0 5.5C0 2.46243 2.46243 0 5.5 0ZM5.5 1.5C3.29086 1.5 1.5 3.29086 1.5 5.5C1.5 7.70914 3.29086 9.5 5.5 9.5C7.70914 9.5 9.5 7.70914 9.5 5.5C9.5 3.29086 7.70914 1.5 5.5 1.5Z" fill="#7E8CAC"/>
</svg>
